<svg xmlns="http://www.w3.org/2000/svg" xmlns:xlink="http://www.w3.org/1999/xlink" id="Layer_1" x="0px" y="0px" viewBox="0 0 728 226" style="enable-background:new 0 0 728 226;" xml:space="preserve"><style type="text/css">	.st0{fill:#026848;}	.st1{fill:#FFFFFF;}	.st2{fill:#231F20;}	.st3{fill:#E82733;}	.st4{fill:#3B3A3C;}	.st5{fill:#FFFFFF;stroke:#808184;stroke-width:0.9569;stroke-miterlimit:10;}	.st6{fill:#BABCBE;stroke:#808184;stroke-width:0.9569;stroke-miterlimit:10;}	.st7{fill:#AAABAE;}	.st8{fill:#BABCBE;}</style><g>	<g>		<path class="st0" d="M234,110.7h-14.9V50.9H234V110.7z M275.3,110.7h-18.7L234.7,81l21.1-30.1h17.8l-21.4,29.9L275.3,110.7z"></path>		<path class="st0" d="M294.8,110.7h-15.6L301,50.9h18.8l21.8,59.8h-16l-4-12.2h-22.9L294.8,110.7z M303.1,85.3l-0.7,2.1h15.7   l-0.7-2.1c-1.9-5.8-3.4-10.7-4.6-14.8c-1.2-4.1-1.9-6.7-2.2-7.9l-0.4-1.8C309.7,64.1,307.4,72.3,303.1,85.3z"></path>		<path class="st0" d="M380,110.7h-16.7l-17.6-59.8h15.7l6,22c1.3,4.7,2.4,9,3.2,12.8c0.8,3.8,1.4,6.5,1.6,7.9l0.4,2.1   c1.1-4.6,3.3-12.2,6.6-22.9l6.5-21.1h11.1l6.4,21.1c1.4,4.4,2.6,8.6,3.6,12.4s1.8,6.5,2.2,8.1l0.6,2.4c0.8-5.3,2.6-12.9,5.4-23   l6-21.9h15.2l-17.5,59.8h-16.7l-5.7-18.9c-1.4-4.6-2.5-8.4-3.3-11.5c-0.9-3.1-1.4-5.2-1.6-6l-0.2-1.3c-0.2,2.4-1.9,8.7-5.2,18.9   L380,110.7z"></path>		<path class="st0" d="M455.9,110.7h-15.6l21.8-59.8H481l21.8,59.8h-16l-4-12.2h-22.9L455.9,110.7z M464.2,85.3l-0.7,2.1h15.7   l-0.7-2.1c-1.9-5.8-3.4-10.7-4.6-14.8c-1.2-4.1-1.9-6.7-2.2-7.9l-0.4-1.8C470.8,64.1,468.5,72.3,464.2,85.3z"></path>		<path class="st0" d="M564,87.6c0,7.8-2.4,13.8-7.2,17.9c-4.8,4.1-11.3,6.2-19.4,6.2c-8,0-14.5-2-19.3-6.1   c-4.9-4.1-7.3-9.9-7.3-17.3V50.9h14.9v37.2c0,7.4,3.9,11.1,11.6,11.1S549,95.3,549,87.7V50.9H564V87.6z"></path>		<path class="st0" d="M624.4,108.1c-3.9,2.2-9.6,3.4-17.1,3.4c-9.6,0-17.6-2.8-24-8.5c-6.4-5.7-9.7-13-9.7-22   c0-9.1,3.1-16.5,9.4-22.3c6.2-5.7,14.4-8.6,24.4-8.6c7.4,0,13,1.1,17,3.4v13.1c-4.8-2.7-10.2-4.1-16.2-4.1c-5.2,0-9.6,1.7-13.2,5   c-3.6,3.3-5.3,7.8-5.3,13.4c0,5.5,1.8,9.9,5.3,13.1c3.6,3.2,8.1,4.8,13.8,4.8c6.1,0,11.3-1.4,15.6-4.3V108.1z"></path>		<path class="st0" d="M689.5,110.7h-15V86.9h-24v23.9h-14.9V50.9h14.9v24.3h24V50.9h15V110.7z"></path>		<path class="st0" d="M718,110.7h-14.9V50.9H718V110.7z"></path>	</g>	<g>		<path class="st0" d="M230,152.4c0,2.1-0.6,3.8-1.9,5c-1.2,1.2-3,1.8-5.2,1.8c-1.7,0-2.9-0.2-3.9-0.7V154c0.9,0.5,1.8,0.8,2.8,0.8   c1.7,0,2.6-0.8,2.6-2.5v-15.4h5.6V152.4z"></path>		<path class="st0" d="M238.8,159.2H233l8.1-22.3h7l8.1,22.3h-6l-1.5-4.6h-8.5L238.8,159.2z M241.9,149.7l-0.3,0.8h5.8l-0.3-0.8   c-0.7-2.2-1.3-4-1.7-5.5c-0.4-1.5-0.7-2.5-0.8-2.9l-0.1-0.7C244.3,141.8,243.4,144.9,241.9,149.7z"></path>		<path class="st0" d="M267.8,152h-2.8v7.2h-5.6v-22.3h8.4c2.7,0,4.9,0.7,6.5,2.1c1.7,1.4,2.5,3.1,2.5,5.3c0,2.4-0.9,4.3-2.6,5.7   C272.5,151.3,270.3,152,267.8,152z M267.1,141h-2.2v7h1.8c2.9,0,4.4-1.2,4.4-3.7C271.2,142.1,269.8,141,267.1,141z"></path>		<path class="st0" d="M284,159.2h-5.8l8.1-22.3h7l8.1,22.3h-6l-1.5-4.6h-8.5L284,159.2z M287.1,149.7l-0.3,0.8h5.8l-0.3-0.8   c-0.7-2.2-1.3-4-1.7-5.5c-0.4-1.5-0.7-2.5-0.8-2.9l-0.1-0.7C289.5,141.8,288.6,144.9,287.1,149.7z"></path>		<path class="st0" d="M310.1,159.2h-5.6v-22.3h6.1l5.7,9.2c0.8,1.3,1.5,2.5,2.1,3.6c0.6,1.1,1,1.9,1.1,2.4l0.3,0.7   c-0.2-1.6-0.4-3.9-0.4-6.8v-9.2h5.6v22.3h-6.1l-5.8-9.2c-0.8-1.2-1.4-2.4-2-3.5s-1-2-1.2-2.6l-0.3-0.8c0.4,2,0.5,4.3,0.5,6.9   V159.2z"></path>		<path class="st0" d="M344.8,159.2h-15.1v-22.3h15v4.1h-9.4v5.1h8.4v4h-8.4v5.1h9.5V159.2z"></path>		<path class="st0" d="M364.5,152.7c0,2-0.8,3.6-2.4,4.9c-1.6,1.2-3.8,1.9-6.4,1.9c-2.9,0-5.2-0.5-7-1.4v-5.1c2.2,1.5,4.5,2.2,7,2.2   c0.8,0,1.5-0.2,2.1-0.6c0.6-0.4,0.8-0.9,0.8-1.6c0-0.2,0-0.4-0.1-0.6c-0.1-0.2-0.2-0.4-0.4-0.6c-0.2-0.2-0.4-0.3-0.6-0.4   c-0.2-0.1-0.4-0.3-0.8-0.4c-0.3-0.2-0.6-0.3-0.9-0.4c-0.2-0.1-0.6-0.3-1.1-0.5c-0.5-0.2-0.8-0.4-1.1-0.5c-1.6-0.7-2.8-1.5-3.8-2.4   c-1-1-1.4-2.3-1.4-3.9c0-1.9,0.8-3.5,2.3-4.6c1.5-1.2,3.7-1.8,6.4-1.8c2.4,0,4.5,0.4,6.3,1.1v4.8c-1.9-1-4-1.6-6.1-1.6   c-0.9,0-1.7,0.2-2.1,0.5s-0.7,0.8-0.7,1.4c0,0.6,0.3,1,0.9,1.5c0.6,0.4,1.5,0.9,2.7,1.4c0.7,0.3,1.4,0.6,1.9,0.8   c0.5,0.2,1.1,0.6,1.7,1c0.6,0.4,1.1,0.8,1.5,1.3c0.4,0.5,0.7,1,1,1.7S364.5,151.9,364.5,152.7z"></path>		<path class="st0" d="M383,159.2h-15.1v-22.3h15v4.1h-9.4v5.1h8.4v4h-8.4v5.1h9.5V159.2z"></path>		<path class="st0" d="M411.1,159.2h-14.5v-22.3h5.6v17.8h9V159.2z"></path>		<path class="st0" d="M418.4,159.2h-5.8l8.1-22.3h7l8.1,22.3h-6l-1.5-4.6h-8.5L418.4,159.2z M421.5,149.7l-0.3,0.8h5.8l-0.3-0.8   c-0.7-2.2-1.3-4-1.7-5.5c-0.4-1.5-0.7-2.5-0.8-2.9l-0.1-0.7C424,141.8,423.1,144.9,421.5,149.7z"></path>		<path class="st0" d="M444.6,159.2H439v-22.3h6.1l5.7,9.2c0.8,1.3,1.5,2.5,2.1,3.6c0.6,1.1,1,1.9,1.1,2.4l0.3,0.7   c-0.2-1.6-0.4-3.9-0.4-6.8v-9.2h5.6v22.3h-6.1l-5.8-9.2c-0.8-1.2-1.4-2.4-2-3.5s-1-2-1.2-2.6L444,143c0.4,2,0.5,4.3,0.5,6.9V159.2   z"></path>		<path class="st0" d="M485.1,157.1c-2.3,1.5-5.2,2.3-8.7,2.3c-3.9,0-7.1-1-9.5-3.1c-2.4-2-3.6-4.8-3.6-8.4c0-3.5,1.3-6.3,3.8-8.4   c2.5-2.1,5.8-3.1,9.6-3.1c2.7,0,5.1,0.5,7.1,1.4v5.1c-2.3-1.2-4.7-1.8-7.1-1.8c-2.3,0-4.1,0.6-5.4,1.9c-1.3,1.2-2,2.9-2,5   c0,2.1,0.7,3.8,2,5c1.3,1.2,3.1,1.8,5.4,1.8c1,0,2.1-0.1,3.1-0.4v-4.2h-3.9v-4.3h9.3V157.1z"></path>		<path class="st0" d="M509.2,150.5c0,2.9-0.9,5.1-2.7,6.7c-1.8,1.5-4.2,2.3-7.2,2.3c-3,0-5.4-0.8-7.2-2.3c-1.8-1.5-2.7-3.7-2.7-6.4   v-13.9h5.6v13.8c0,2.8,1.4,4.1,4.3,4.1c2.9,0,4.3-1.4,4.3-4.3v-13.7h5.6V150.5z"></path>		<path class="st0" d="M518,159.2h-5.8l8.1-22.3h7l8.1,22.3h-6l-1.5-4.6h-8.5L518,159.2z M521.1,149.7l-0.3,0.8h5.8l-0.3-0.8   c-0.7-2.2-1.3-4-1.7-5.5c-0.4-1.5-0.7-2.5-0.8-2.9l-0.1-0.7C523.6,141.8,522.7,144.9,521.1,149.7z"></path>		<path class="st0" d="M559.6,157.1c-2.3,1.5-5.2,2.3-8.7,2.3c-3.9,0-7.1-1-9.5-3.1c-2.4-2-3.6-4.8-3.6-8.4c0-3.5,1.3-6.3,3.8-8.4   c2.5-2.1,5.8-3.1,9.6-3.1c2.7,0,5.1,0.5,7.1,1.4v5.1c-2.3-1.2-4.7-1.8-7.1-1.8c-2.3,0-4.1,0.6-5.4,1.9c-1.3,1.2-2,2.9-2,5   c0,2.1,0.7,3.8,2,5c1.3,1.2,3.1,1.8,5.4,1.8c1,0,2.1-0.1,3.1-0.4v-4.2h-3.9v-4.3h9.3V157.1z"></path>		<path class="st0" d="M579.2,159.2h-15.1v-22.3h15v4.1h-9.4v5.1h8.4v4h-8.4v5.1h9.5V159.2z"></path>		<path class="st0" d="M610.7,158.2c-1.5,0.8-3.6,1.3-6.3,1.3c-3.6,0-6.5-1.1-8.9-3.2c-2.4-2.1-3.6-4.8-3.6-8.2   c0-3.4,1.2-6.2,3.5-8.3c2.3-2.1,5.3-3.2,9.1-3.2c2.7,0,4.8,0.4,6.3,1.3v4.9c-1.8-1-3.8-1.5-6-1.5c-1.9,0-3.6,0.6-4.9,1.9   c-1.3,1.2-2,2.9-2,5c0,2,0.7,3.7,2,4.9c1.3,1.2,3,1.8,5.1,1.8c2.3,0,4.2-0.5,5.8-1.6V158.2z"></path>		<path class="st0" d="M629.9,159.2h-15.1v-22.3h15v4.1h-9.4v5.1h8.4v4h-8.4v5.1h9.5V159.2z"></path>		<path class="st0" d="M640,159.2h-5.6v-22.3h6.1l5.7,9.2c0.8,1.3,1.5,2.5,2.1,3.6c0.6,1.1,1,1.9,1.1,2.4l0.3,0.7   c-0.2-1.6-0.4-3.9-0.4-6.8v-9.2h5.6v22.3h-6.1l-5.8-9.2c-0.8-1.2-1.4-2.4-2-3.5c-0.6-1.2-1-2-1.2-2.6l-0.3-0.8   c0.4,2,0.5,4.3,0.5,6.9V159.2z"></path>		<path class="st0" d="M675.8,141h-5.9v18.2h-5.6V141h-6v-4.1h17.5V141z"></path>		<path class="st0" d="M694.3,159.2h-15.1v-22.3h15v4.1h-9.4v5.1h8.4v4h-8.4v5.1h9.5V159.2z"></path>		<path class="st0" d="M704.4,159.2h-5.6v-22.3h8.4c2.7,0,4.9,0.7,6.5,2c1.6,1.3,2.5,3,2.5,5.2c0,3.2-1.5,5.4-4.4,6.6l6.2,8.6h-6.6   l-5.3-7.7h-1.7V159.2z M707.1,141h-2.7v6.3h2.6c2.4,0,3.6-1.1,3.6-3.2c0-0.9-0.3-1.7-0.9-2.2C709.1,141.3,708.2,141,707.1,141z"></path>	</g>	<g>		<g>			<g>				<ellipse class="st1" cx="104.5" cy="98.5" rx="94.5" ry="86.4"></ellipse>			</g>			<g>				<g>					<path class="st2" d="M26.9,102.4l-0.1-1.6l9-0.6l0.1,1.6L26.9,102.4z M27.2,106.9l-0.2-2l4.3-2.7l4.7,2l0.1,1.9l-4.7-2      L27.2,106.9z"></path>					<path class="st2" d="M27.7,109.6l-0.3-1.7l9.4,0.8l0.4,2l-8.4,3.8l-0.3-1.7l1.7-0.7l-0.5-2.4L27.7,109.6z M31.6,109.8l-0.3,0      l0.3,1.7l0.3-0.1c0.8-0.3,1.5-0.6,2.1-0.9c0.6-0.2,1-0.4,1.1-0.4l0.3-0.1C34.9,110,33.7,110,31.6,109.8z"></path>					<path class="st2" d="M30.1,119.2l-0.6-1.7l8-4.4l0.6,1.6l-3,1.6c-0.6,0.3-1.2,0.6-1.7,0.9c-0.5,0.2-0.9,0.4-1.1,0.5l-0.3,0.1      c0.7-0.1,1.9-0.2,3.5-0.3l3.3-0.2l0.4,1.1l-2.8,1.6c-0.6,0.3-1.1,0.6-1.7,0.9c-0.5,0.3-0.9,0.5-1.1,0.6l-0.3,0.2      c0.8-0.1,2-0.3,3.5-0.4l3.4-0.3l0.6,1.6l-9.2,0.7l-0.6-1.7l2.5-1.4c0.6-0.3,1.1-0.6,1.5-0.8c0.4-0.2,0.7-0.4,0.8-0.4l0.2-0.1      c-0.4,0.1-1.3,0.2-2.9,0.3L30.1,119.2z"></path>					<path class="st2" d="M33.5,127.6l-0.8-1.5l9.3-1.4l1,1.8l-7.1,5.7l-0.8-1.6l1.5-1.1l-1.2-2.2L33.5,127.6z M37.4,126.9l-0.3,0.1      l0.8,1.5l0.3-0.2c0.7-0.5,1.3-1,1.8-1.3c0.5-0.4,0.8-0.6,1-0.7l0.2-0.1C40.7,126.3,39.4,126.5,37.4,126.9z"></path>					<path class="st2" d="M43,136.7c-1,0.6-1.9,0.8-2.7,0.6c-0.8-0.1-1.5-0.6-2-1.3c-0.5-0.7-0.6-1.5-0.4-2.2      c0.2-0.7,0.8-1.4,1.8-1.9l4.8-2.7l0.9,1.4l-4.8,2.7c-1,0.5-1.2,1.2-0.7,1.9s1.2,0.8,2.2,0.2l4.7-2.7l0.9,1.4L43,136.7z"></path>					<path class="st2" d="M45,143.8c-0.6-0.1-1.1-0.5-1.6-1.2c-0.7-0.8-0.9-1.7-0.7-2.8c0.2-1,0.9-1.9,1.9-2.7      c1.1-0.8,2.2-1.1,3.3-1.1c1.1,0,2.1,0.5,2.8,1.4c0.5,0.6,0.8,1.2,0.8,1.7l-1.6,1.1c0-0.6-0.3-1.2-0.7-1.7      c-0.4-0.4-0.9-0.7-1.6-0.7c-0.7,0-1.3,0.2-2,0.7c-0.7,0.5-1.1,1-1.2,1.6c-0.1,0.6,0,1.1,0.4,1.6c0.4,0.5,1,0.8,1.6,1L45,143.8z      "></path>					<path class="st2" d="M50.3,149.6l-1.2-1.2l2.6-2.3l-2-1.9l-2.6,2.3l-1.2-1.2l6.6-5.7l1.2,1.2l-2.7,2.3L53,145l2.7-2.3l1.2,1.2      L50.3,149.6z"></path>					<path class="st2" d="M53.2,151.9l-1.3-1.1l6.1-6.2l1.3,1.1L53.2,151.9z"></path>					<path class="st2" d="M61.1,154.5c-0.5,0.6-1.1,1-1.7,1.2c-0.6,0.1-1.2,0-1.8-0.4c-0.4-0.3-0.7-0.6-0.8-0.9l1.1-1.3      c0.1,0.3,0.3,0.5,0.5,0.7c0.4,0.3,0.9,0.2,1.3-0.3l3.7-4.6l1.4,1L61.1,154.5z"></path>					<path class="st2" d="M62.2,158.2l-1.6-0.9l6.9-5.8l1.9,1.1l-2.5,8.3l-1.6-0.9l0.6-1.7l-2.3-1.3L62.2,158.2z M65.1,155.7      l-0.2,0.2l1.6,0.9l0.1-0.3c0.3-0.8,0.5-1.5,0.7-2c0.2-0.5,0.3-0.9,0.4-1.1l0.1-0.2C67.4,153.6,66.5,154.4,65.1,155.7z"></path>					<path class="st2" d="M72.1,160.2l-0.8-0.4l-1.3,2.4l-1.6-0.7l3.9-7.5l2.4,1.1c0.8,0.3,1.3,0.9,1.5,1.5c0.2,0.7,0.2,1.4-0.2,2.1      c-0.4,0.8-1,1.3-1.8,1.6C73.5,160.6,72.8,160.5,72.1,160.2z M73.8,156.4l-0.6-0.3l-1.2,2.3l0.5,0.2c0.8,0.4,1.5,0.1,1.9-0.7      C74.8,157.3,74.6,156.8,73.8,156.4z"></path>					<path class="st2" d="M76.1,164.7l-1.7-0.6l5.5-7l2.1,0.7l-0.7,8.6l-1.8-0.6l0.2-1.7l-2.5-0.8L76.1,164.7z M78.3,161.7l-0.2,0.3      l1.7,0.6l0-0.3c0.1-0.8,0.2-1.5,0.3-2.1c0.1-0.6,0.1-0.9,0.2-1.1l0-0.2C80.1,159.2,79.4,160.2,78.3,161.7z"></path>					<path class="st2" d="M84.6,167.3l-1.7-0.4l2.1-8l1.9,0.4l0.9,3.7c0.1,0.5,0.2,1,0.3,1.5c0.1,0.5,0.1,0.8,0.1,0.9l0,0.3      c0.1-0.6,0.3-1.4,0.5-2.5l0.9-3.3l1.7,0.4l-2.1,8l-1.9-0.4l-0.9-3.7c-0.1-0.5-0.2-1-0.3-1.4c-0.1-0.5-0.1-0.8-0.1-1l0-0.3      c-0.1,0.7-0.2,1.6-0.5,2.5L84.6,167.3z"></path>					<path class="st2" d="M96,169.2l-4.8-0.6l1.3-8.2l4.7,0.6l-0.2,1.5l-3-0.4l-0.3,1.9l2.6,0.3l-0.2,1.5l-2.6-0.3l-0.3,1.9l3,0.4      L96,169.2z"></path>					<path class="st2" d="M102.8,167.2c0,0.7-0.3,1.3-0.9,1.8c-0.5,0.4-1.2,0.6-2.1,0.6c-0.9,0-1.6-0.3-2.2-0.6l0.1-1.9      c0.7,0.6,1.4,0.9,2.2,0.9c0.3,0,0.5-0.1,0.7-0.2c0.2-0.1,0.3-0.3,0.3-0.6c0-0.1,0-0.2,0-0.2c0-0.1-0.1-0.1-0.1-0.2      s-0.1-0.1-0.2-0.2c-0.1,0-0.1-0.1-0.2-0.2c-0.1-0.1-0.2-0.1-0.3-0.2c-0.1,0-0.2-0.1-0.3-0.2c-0.1-0.1-0.3-0.1-0.4-0.2      c-0.5-0.3-0.9-0.6-1.1-1c-0.3-0.4-0.4-0.9-0.4-1.5c0-0.7,0.3-1.3,0.8-1.7c0.5-0.4,1.2-0.6,2.1-0.6c0.8,0,1.4,0.2,2,0.5      l-0.1,1.8c-0.6-0.4-1.2-0.6-1.9-0.7c-0.3,0-0.5,0-0.7,0.2c-0.2,0.1-0.3,0.3-0.3,0.5c0,0.2,0.1,0.4,0.3,0.6      c0.2,0.2,0.5,0.4,0.8,0.6c0.2,0.1,0.4,0.2,0.6,0.3c0.2,0.1,0.3,0.2,0.5,0.4c0.2,0.2,0.3,0.3,0.5,0.5c0.1,0.2,0.2,0.4,0.3,0.6      C102.8,166.7,102.9,166.9,102.8,167.2z"></path>					<path class="st2" d="M109.1,169.5l-4.8,0.1l-0.2-8.3l4.8-0.1l0,1.5l-3,0.1l0.1,1.9l2.7-0.1l0,1.5l-2.7,0.1l0.1,1.9l3-0.1      L109.1,169.5z"></path>					<path class="st2" d="M118.6,168.5l-4.6,0.6l-1.3-8.2l1.7-0.2l1.1,6.6l2.8-0.4L118.6,168.5z"></path>					<path class="st2" d="M121.5,167.9l-1.8,0.4l0.3-8.6l2.2-0.5l4.7,7.5l-1.8,0.4l-0.9-1.5l-2.6,0.6L121.5,167.9z M121.5,164.3v0.3      l1.8-0.4l-0.2-0.3c-0.4-0.7-0.8-1.4-1.1-1.9c-0.3-0.5-0.5-0.9-0.5-1l-0.1-0.2C121.5,161.3,121.5,162.4,121.5,164.3z"></path>					<path class="st2" d="M130.1,165.7l-1.7,0.6l-3.1-7.8l1.8-0.6l3,2.6c0.4,0.4,0.8,0.7,1.1,1.1c0.3,0.3,0.6,0.6,0.7,0.7l0.2,0.2      c-0.3-0.5-0.7-1.3-1.1-2.3l-1.3-3.2l1.7-0.6l3.1,7.8l-1.8,0.6l-3-2.6c-0.4-0.3-0.8-0.7-1.1-1c-0.3-0.3-0.6-0.6-0.7-0.8      l-0.2-0.3c0.4,0.7,0.8,1.4,1.1,2.4L130.1,165.7z"></path>					<path class="st2" d="M142.1,159.9c-0.4,0.8-1.1,1.5-2.1,1.9c-1.1,0.5-2.2,0.6-3.3,0.2c-1.1-0.4-1.9-1.1-2.6-2.3      c-0.6-1.2-0.8-2.2-0.5-3.3c0.3-1,1.1-1.8,2.2-2.3c0.8-0.4,1.5-0.5,2.3-0.5l0.9,1.7c-0.9-0.1-1.7,0-2.3,0.3      c-0.6,0.3-1,0.7-1.2,1.3c-0.2,0.6,0,1.2,0.3,1.9c0.4,0.7,0.9,1.2,1.5,1.4s1.2,0.2,1.9-0.1c0.3-0.1,0.6-0.3,0.8-0.5l-0.8-1.4      l-1.1,0.5l-0.8-1.4l2.6-1.2L142.1,159.9z"></path>					<path class="st2" d="M147.5,153.9c0.6,0.9,0.9,1.7,0.8,2.5c-0.1,0.8-0.6,1.4-1.4,1.9c-0.8,0.5-1.6,0.6-2.4,0.4      c-0.8-0.2-1.5-0.7-2.2-1.6l-3.1-4.3l1.5-0.9l3.1,4.3c0.6,0.9,1.3,1.1,2.1,0.6c0.8-0.5,0.8-1.1,0.2-2l-3-4.3l1.5-0.9      L147.5,153.9z"></path>					<path class="st2" d="M152.2,154.6l-1.4,1.1l-3.7-7.9l1.7-1.3l7.7,4.9l-1.5,1.1l-1.5-1l-2.1,1.6L152.2,154.6z M150.5,151.3      l0.1,0.3l1.4-1.1l-0.3-0.2c-0.7-0.5-1.3-0.9-1.8-1.3c-0.5-0.4-0.8-0.6-1-0.7l-0.2-0.2C149.1,148.6,149.7,149.7,150.5,151.3z"></path>					<path class="st2" d="M161.8,145.5c-0.1,0.9-0.5,1.7-1.3,2.4c-0.9,0.8-1.9,1.2-3,1.2c-1.1,0-2.2-0.5-3.2-1.4      c-1-0.9-1.5-1.9-1.6-3c0-1.1,0.4-2,1.2-2.8c0.6-0.6,1.3-0.9,2-1.1l1.5,1.3c-0.9,0.2-1.6,0.5-2.1,1c-0.5,0.5-0.7,1-0.7,1.6      s0.4,1.2,1,1.7c0.6,0.5,1.2,0.8,1.9,0.9c0.7,0,1.2-0.2,1.7-0.6c0.2-0.2,0.4-0.5,0.6-0.7l-1.2-1.1l-0.9,0.8l-1.3-1.1l2.1-1.9      L161.8,145.5z"></path>					<path class="st2" d="M166.7,141.2l-3,3.4l-7.1-5.2l3-3.4l1.3,0.9l-1.9,2.1l1.6,1.2l1.7-1.9l1.3,0.9l-1.7,1.9l1.6,1.2l1.9-2.2      L166.7,141.2z"></path>					<path class="st2" d="M172.2,132.7c0.1,0.5-0.2,1.1-0.6,1.8c-0.6,0.9-1.4,1.4-2.6,1.6c-1.1,0.2-2.3,0-3.4-0.7      c-1.2-0.7-2-1.5-2.3-2.5c-0.4-1-0.2-1.9,0.4-2.9c0.4-0.7,0.9-1.1,1.5-1.3l1.7,0.9c-0.6,0.3-1.2,0.7-1.5,1.2      c-0.3,0.5-0.4,1-0.2,1.6c0.2,0.6,0.7,1.1,1.4,1.5c0.7,0.4,1.4,0.5,2,0.4c0.6-0.1,1.1-0.4,1.5-0.9c0.4-0.6,0.5-1.1,0.4-1.8      L172.2,132.7z"></path>					<path class="st2" d="M175.5,127.4l-2.1,4l-8.1-3.6l2.1-3.9l1.5,0.7l-1.3,2.5l1.8,0.8l1.2-2.2l1.5,0.7l-1.2,2.2l1.8,0.8l1.3-2.5      L175.5,127.4z"></path>					<path class="st2" d="M176.9,124.2l-0.6,1.5l-8.5-2.8l0.7-1.7l4.1-0.4c0.6-0.1,1.1-0.1,1.6-0.1c0.5,0,0.8,0,1,0l0.3,0      c-0.6-0.1-1.5-0.4-2.6-0.8l-3.5-1.2l0.6-1.5l8.5,2.8l-0.7,1.7l-4.2,0.4c-0.5,0.1-1.1,0.1-1.6,0.1c-0.5,0-0.9,0-1.1,0l-0.3,0      c0.8,0.2,1.7,0.4,2.7,0.7L176.9,124.2z"></path>					<path class="st2" d="M173.2,112.1l-0.5,1.7l7.2,1.7l-0.4,1.6l-7.2-1.7l-0.5,1.7l-1.6-0.4l1.4-4.9L173.2,112.1z"></path>					<path class="st2" d="M181.5,108l-0.8,4.3l-8.9-1.3l0.8-4.3l1.6,0.2l-0.5,2.7l2,0.3l0.4-2.4l1.6,0.2l-0.4,2.4l2,0.3l0.5-2.7      L181.5,108z"></path>					<path class="st2" d="M181.9,104.6l-0.1,1.6l-9-0.6l0.2-2.4c0.1-0.8,0.4-1.4,1-1.8c0.6-0.4,1.3-0.6,2.1-0.6      c1.3,0.1,2.1,0.6,2.6,1.5l3.6-1.6l-0.2,1.9l-3.3,1.3l0,0.5L181.9,104.6z M174.6,103.3l-0.1,0.8l2.5,0.2l0.1-0.8      c0.1-0.7-0.4-1.1-1.2-1.1c-0.4,0-0.7,0-0.9,0.2C174.7,102.7,174.6,103,174.6,103.3z"></path>				</g>			</g>			<g>				<path class="st0" d="M165.7,41.9H42.6c4.9-4.5,10.5-8.5,16.5-11.8c0,0,8.2-4.2,12.3-5.6c10.1-3.7,21.1-5.8,32.8-5.8     c11.6,0,22.6,2.1,32.7,5.8l12.3,5.6C155.2,33.4,160.8,37.4,165.7,41.9z"></path>			</g>			<g>				<path class="st0" d="M171.3,47.6H37.1c-3.6,4-6.8,8.4-9.5,13.1h42.1c9.3-7.3,21.4-11.8,34.7-11.8c13.3,0,25.4,4.5,34.7,11.8     h41.7C178.1,56,174.9,51.6,171.3,47.6"></path>			</g>			<g>				<path class="st0" d="M20.1,78.4h35.4c2-4.4,4.7-8.5,8-12.2h-39C22.7,70.2,21.3,74.2,20.1,78.4"></path>			</g>			<g>				<path class="st0" d="M183.7,66.3h-38.6c3.3,3.6,6,7.7,8,12.2h35C187.1,74.2,185.6,70.2,183.7,66.3"></path>			</g>			<g>				<path class="st0" d="M157.2,96.5l0,0.3h33.5c0-4.4-0.4-8.6-1.2-12.8h-34.2C156.5,88,157.2,92.2,157.2,96.5"></path>			</g>			<g>				<path class="st0" d="M17.7,96.8h33.9l0-0.3c0-4.3,0.7-8.5,1.9-12.5H18.9C18.1,88.2,17.7,92.5,17.7,96.8"></path>			</g>			<g>				<path class="st3" d="M73.8,126.5h61.5c2.4-2,4.5-4.2,6.4-6.6H67.5C69.3,122.3,71.5,124.5,73.8,126.5"></path>			</g>			<g>				<path class="st3" d="M65.5,117.2h78.1c1.4-2.2,2.6-4.5,3.5-6.9H62C63,112.7,64.1,115,65.5,117.2"></path>			</g>			<g>				<path class="st3" d="M59.7,101.2c0.3,2.1,0.7,4.2,1.4,6.2h87c0.6-2,1.1-4.1,1.4-6.2H59.7z"></path>			</g>			<g>				<path class="st3" d="M104.6,137.5c10.2,0,19.5-3.1,27.1-8.2H77.5C85,134.4,94.4,137.5,104.6,137.5"></path>			</g>			<g>				<polygon class="st4" points="114.9,76.6 104.6,106.8 104.3,107.7 104,108.6 99.3,122.1 100,122.3 104.3,109.6 104.6,108.7      104.9,107.7 115.5,76.7     "></polygon>			</g>			<g>				<path class="st0" d="M101.1,102.3l-7.9-23.7c0,0-5.3-1.1-14.6,4.6c0,0-9.7,7.1-17.9,6.4l7.9,23.6c0,0,5.5,0.8,12.6-3.2     C81.2,109.9,93,101.3,101.1,102.3"></path>			</g>			<g>				<path class="st3" d="M91.3,95.2c0,4.6-3.7,8.3-8.3,8.3c-4.6,0-8.3-3.7-8.3-8.3c0-4.6,3.7-8.3,8.3-8.3     C87.5,86.9,91.3,90.6,91.3,95.2"></path>			</g>			<g>				<path class="st5" d="M107.6,102.3l7.9-23.7c0,0,5.3-1.1,14.6,4.6c0,0,9.7,7.1,17.9,6.4l-7.9,23.6c0,0-5.5,0.8-12.6-3.2     C127.5,109.9,115.7,101.3,107.6,102.3"></path>				<path class="st6" d="M139,113.2c-0.6,0-1.4,0-2.4-0.2c-2.1-0.3-5.3-1-9-3.1c0,0-3-2.2-6.9-4.2c-3.6-1.9-8.8-4-13-3.5l0,0l0,0     l7.9-23.7l0,0c0,0,1.4-0.3,3.8,0.2c2.3,0.4,6,1.5,10.8,4.5c0,0,2.5,1.8,5.9,3.5c3.1,1.5,7.8,3.3,12,3l0,0l0,0l-7.9,23.6l0,0     C140.2,113.2,139.7,113.2,139,113.2z M108.8,102.2c1.6,0,3.3,0.3,5.3,0.9c2,0.6,4.2,1.5,6.5,2.7c3.9,2,6.9,4.2,6.9,4.2     c3.7,2,6.9,2.8,9,3.1c2.1,0.3,3.5,0.1,3.6,0.1l7.9-23.5c-1.9,0.1-4-0.1-6.2-0.7c-1.8-0.5-3.8-1.3-5.8-2.2     c-3.4-1.7-5.8-3.4-5.9-3.5c-4.8-2.9-8.5-4.1-10.8-4.5c-2.3-0.4-3.7-0.2-3.8-0.2l-7.9,23.7C108,102.2,108.4,102.2,108.8,102.2z"></path>			</g>			<g>				<path class="st3" d="M136.1,96c0,4.6-3.7,8.3-8.3,8.3c-4.6,0-8.3-3.7-8.3-8.3c0-4.6,3.7-8.3,8.3-8.3     C132.4,87.8,136.1,91.5,136.1,96"></path>			</g>			<g>				<polygon class="st4" points="104.7,108.8 109.2,122.1 109.8,122 105,107.8     "></polygon>			</g>			<g>				<polygon class="st7" points="104.4,109.7 108.7,122.3 109.2,122.2 104.7,108.8     "></polygon>			</g>			<g>				<polygon class="st4" points="104.2,105.8 94.1,76.4 93.5,76.6 103.8,106.7     "></polygon>			</g>			<g>				<polygon class="st7" points="93.5,76.6 93,76.8 103.5,107.7 103.8,106.7     "></polygon>			</g>			<g>				<polygon class="st7" points="114.3,76.4 104.3,105.8 104,106.8 103.6,107.7 98.8,122 99.3,122.1 104,108.6 104.3,107.7      104.6,106.8 114.9,76.6     "></polygon>			</g>			<g>				<path class="st7" d="M101.7,122.3c0,0.3-1,0.4-2.2,0.4c-1.2,0-2.2-0.2-2.2-0.4c0-0.3,1-0.5,2.2-0.5     C100.7,121.8,101.7,122,101.7,122.3"></path>			</g>			<g>				<path class="st7" d="M111.3,122.3c0,0.3-1,0.4-2.2,0.4c-1.2,0-2.2-0.2-2.2-0.4c0-0.3,1-0.5,2.2-0.5     C110.3,121.8,111.3,122,111.3,122.3"></path>			</g>			<g>				<path class="st4" d="M118.6,66.6l0,10.3c0,0-3.2,5.3-14.4,5.3c-11.1,0-14.4-5.2-14.4-5.2l0-9.9l14.4,3.8L118.6,66.6z"></path>			</g>			<g>				<polygon class="st8" points="104.2,57.2 80.3,62.8 104.2,69.1 128.1,62.1     "></polygon>			</g>			<g>				<polygon class="st4" points="86.4,65 84.9,86.1 86.4,90.1 87.8,86.1     "></polygon>			</g>			<g>				<g>					<path class="st3" d="M104.5,151.4c-31.9,0-57.8-23.7-57.8-52.9s25.9-52.9,57.8-52.9s57.8,23.7,57.8,52.9      S136.3,151.4,104.5,151.4z M104.5,50.3c-29,0-52.6,21.6-52.6,48.2s23.6,48.2,52.6,48.2s52.6-21.6,52.6-48.2      S133.5,50.3,104.5,50.3z"></path>				</g>			</g>			<path class="st0" d="M188.8,94.2c0.1,1.6,0.2,3.2,0.2,4.8c0,42.5-38,77-84.8,77s-84.8-34.5-84.8-77c0-1.6,0.1-3.2,0.2-4.8h-1.7    c-0.1,1.6-0.2,3.2-0.2,4.8c0,43.3,38.8,78.6,86.5,78.6s86.5-35.2,86.5-78.6c0-1.6-0.1-3.2-0.2-4.8H188.8z"></path>		</g>		<g>			<path class="st0" d="M73.2,213.7h-5.5v-20.2h5.5V213.7z M88.3,213.7h-6.8l-8-10l7.7-10.1h6.5l-7.8,10.1L88.3,213.7z"></path>			<path class="st0" d="M100.7,207.6c0,1.9-0.6,3.4-1.8,4.5c-1.2,1.1-2.9,1.6-5.1,1.6c-1.6,0-2.9-0.2-3.8-0.6v-4.1    c0.9,0.5,1.8,0.7,2.7,0.7c1.7,0,2.5-0.8,2.5-2.3v-13.9h5.5V207.6z"></path>			<path class="st0" d="M119.4,213.7h-14.3v-20.2h5.5v16.1h8.8V213.7z"></path>			<path class="st0" d="M140.1,212.8c-1.4,0.8-3.5,1.1-6.2,1.1c-3.5,0-6.4-1-8.8-2.9c-2.4-1.9-3.5-4.4-3.5-7.4    c0-3.1,1.1-5.6,3.4-7.5c2.3-1.9,5.3-2.9,8.9-2.9c2.7,0,4.8,0.4,6.2,1.1v4.4c-1.8-0.9-3.7-1.4-5.9-1.4c-1.9,0-3.5,0.6-4.8,1.7    c-1.3,1.1-2,2.6-2,4.5c0,1.9,0.7,3.3,2,4.4c1.3,1.1,3,1.6,5,1.6c2.2,0,4.1-0.5,5.7-1.4V212.8z"></path>		</g>	</g></g></svg>